<svg width="899" height="205" viewBox="0 0 899 205" fill="none" xmlns="http://www.w3.org/2000/svg">
<path d="M69.2459 55.708L68.8427 56.1113L61.1558 63.7982L60.2625 64.6914L52.1724 72.7816V152.805H149.275V55.708H69.2459ZM141.179 144.715H95.0323L60.2625 119.444V76.9721L73.4365 63.7982H108.028C112.616 79.7692 125.208 92.3613 141.179 96.95V144.715Z" fill="black"/>
<path d="M88.3588 159.133L76.2772 196.302H25.8119L10.2237 148.292L48.3623 120.592V109.857L0 144.974L19.498 204.984H82.586L97.4749 159.133H88.3588Z" fill="black"/>
<path d="M207.5 48.5461C207.5 74.4652 187.191 95.6374 161.649 97.0156V88.8948C182.714 87.5217 199.41 69.9327 199.41 48.5461C199.41 26.2407 181.26 8.09016 158.954 8.09016C137.568 8.09016 119.979 24.786 118.606 45.851H110.485C111.863 20.3096 133.035 0 158.954 0C185.757 0 207.5 21.7388 207.5 48.5461Z" fill="black"/>
<path d="M88.3588 159.133L76.2772 196.302H25.8119L10.2237 148.292L48.3623 120.592V109.857L0 144.974L19.498 204.984H82.586L97.4749 159.133H88.3588Z" fill="black"/>
<path d="M768.8 31.8508L723.546 129.096H722.183V47.4696L737.802 31.8508H768.8Z" fill="black"/>
<path d="M785.824 91.6672H756.265L771.374 58.643L785.824 91.6672Z" fill="black"/>
<path d="M801.975 129.096H739.316L750.183 105.454H791.772L801.975 129.096Z" fill="black"/>
<path d="M819.382 31.8513V129.097H818.019L774.363 31.8513H819.382Z" fill="black"/>
<path d="M323.054 86.0211C320.094 81.6213 316.005 78.5435 310.866 76.7519C316.164 71.9233 318.848 66.0433 318.848 59.071C318.848 55.253 318.032 51.4759 316.393 47.7396C314.796 44.0391 312.616 40.9613 309.891 38.4704C307.206 36.0969 303.934 34.3819 300.04 33.3713C296.339 32.3964 291.51 31.8911 285.472 31.8503L269.853 47.4691V129.096H292.092C298.712 129.096 304.24 128.473 308.645 127.263C312.693 126.018 316.317 123.757 319.548 120.526C324.922 115.268 327.607 108.842 327.607 101.247C327.612 95.4435 326.091 90.3852 323.054 86.0211ZM284.538 45.3253H289.678C294.665 45.3253 298.442 46.535 301.009 48.9085C303.618 51.2819 304.945 54.7477 304.945 59.3057C304.945 64.0169 303.658 67.5644 301.127 69.9786C298.595 72.3929 294.583 73.6026 289.132 73.6026H284.538V45.3253ZM308.216 111.374C305.103 113.982 300.233 115.309 293.613 115.309H284.538V85.9088H291.975C299.84 85.9088 305.333 87.3125 308.41 90.1147C311.524 92.9578 313.122 96.5001 313.122 100.706C313.122 105.024 311.488 108.572 308.216 111.374Z" fill="black"/>
<path d="M394.358 45.6367V31.8502H356.347L340.728 47.4691V129.095H394.353V115.309H355.407V82.7902H393.219V69.0037H355.407V45.6367H394.358Z" fill="black"/>
<path d="M428.327 115.308V32.783L413.647 47.4627V129.089H456.916V115.303H428.327V115.308Z" fill="black"/>
<path d="M485.489 115.31V31.8508L470.809 47.4696V129.096H514.077V115.31H485.489Z" fill="black"/>
<path d="M627.894 44.3913C622.948 39.874 617.42 36.6431 611.341 34.7698C605.655 32.8251 597.943 31.8502 588.168 31.8502H583.38L567.762 47.4691V129.095H587.898C597.79 129.095 605.385 128.202 610.759 126.37C616.522 124.578 622.014 121.347 627.271 116.748C637.71 107.52 642.926 95.4078 642.926 80.4933C642.926 65.5737 637.944 53.5431 627.894 44.3913ZM617.303 106.234C613.796 109.429 609.866 111.762 605.502 113.206C601.102 114.61 595.651 115.309 589.067 115.309H582.446V45.6367H589.067C601.567 45.6367 611.03 48.6379 617.456 54.518C624.582 61.179 628.165 69.8255 628.165 80.4933C628.17 91.0437 624.546 99.6493 617.303 106.234Z" fill="black"/>
<path d="M709.694 45.6367V31.8502H671.489L656.028 47.3109V129.095H709.694V115.309H670.713V82.7902H708.566V69.0037H670.713V45.6367H709.694Z" fill="black"/>
<path d="M868.15 87.6545C874.617 86.2508 879.793 83.0964 883.728 78.1504C887.699 73.2045 889.649 67.2836 889.649 60.3929C889.649 51.5933 886.535 44.4627 880.226 39.0931C874.5 34.2645 865.235 31.8502 852.383 31.8502H850.826L835.207 47.4691V129.095H849.887V89.2929H852.536L880.303 129.095H898.219L868.15 87.6545ZM849.887 76.5171V45.6367H855.104C868.62 45.6367 875.352 50.6235 875.352 60.592C875.352 71.1832 868.42 76.5222 854.517 76.5222H849.887V76.5171Z" fill="black"/>
<path d="M429.258 31.8508L428.323 32.7848V31.8508H429.258Z" fill="black"/>
<path d="M470.809 47.4696L485.489 32.7848L486.423 31.8508H485.489L470.809 47.4696Z" fill="black"/>
<path d="M394.858 162.649L405.219 189.247L416.045 160.719L426.402 189.247L437.406 162.649H443.924L426.141 204.962L415.913 176.772L405.245 204.988L388.34 162.649H394.858Z" fill="black"/>
<path d="M467.45 191.253H449.462C449.616 193.315 450.289 194.958 451.473 196.178C452.658 197.378 454.179 197.98 456.037 197.98C457.481 197.98 458.676 197.638 459.62 196.949C460.549 196.26 461.605 194.989 462.79 193.136L467.684 195.867C466.929 197.158 466.128 198.261 465.291 199.179C464.448 200.098 463.545 200.854 462.585 201.446C461.621 202.038 460.584 202.472 459.467 202.747C458.349 203.023 457.139 203.161 455.832 203.161C452.086 203.161 449.08 201.961 446.813 199.552C444.547 197.128 443.414 193.917 443.414 189.915C443.414 185.949 444.511 182.734 446.711 180.279C448.926 177.854 451.866 176.644 455.526 176.644C459.222 176.644 462.141 177.823 464.29 180.176C466.419 182.514 467.485 185.75 467.485 189.895L467.45 191.253ZM461.498 186.511C460.692 183.418 458.742 181.871 455.649 181.871C454.944 181.871 454.286 181.978 453.663 182.193C453.046 182.407 452.479 182.718 451.974 183.122C451.468 183.525 451.034 184.01 450.672 184.576C450.31 185.143 450.034 185.786 449.845 186.511H461.498Z" fill="black"/>
<path d="M480.646 158.911V180.246C482.969 177.842 485.592 176.638 488.532 176.638C491.916 176.638 494.734 177.898 496.985 180.425C499.236 182.936 500.359 186.06 500.359 189.806C500.359 193.67 499.226 196.865 496.959 199.392C494.708 201.898 491.865 203.154 488.43 203.154C485.526 203.154 482.933 202.036 480.646 199.805V202.434H474.848V158.906H480.646V158.911ZM494.433 190.067C494.433 187.663 493.779 185.703 492.478 184.192C491.156 182.645 489.497 181.874 487.501 181.874C485.373 181.874 483.637 182.62 482.295 184.115C480.973 185.59 480.309 187.515 480.309 189.888C480.309 192.328 480.963 194.278 482.27 195.737C483.576 197.233 485.291 197.978 487.425 197.978C489.436 197.978 491.1 197.233 492.422 195.737C493.764 194.227 494.433 192.333 494.433 190.067Z" fill="black"/>
<path d="M529.893 186.281V202.441H523.89V162.649H530.694C534.027 162.649 536.544 162.878 538.243 163.343C539.963 163.807 541.474 164.685 542.781 165.971C545.068 168.207 546.211 171.025 546.211 174.424C546.211 178.068 544.991 180.952 542.551 183.086C540.111 185.219 536.819 186.281 532.68 186.281H529.893ZM529.893 180.712H532.133C537.651 180.712 540.407 178.589 540.407 174.347C540.407 170.244 537.564 168.187 531.878 168.187H529.893V180.712Z" fill="black"/>
<path d="M552.336 177.338H558.134V179.579C559.196 178.461 560.145 177.696 560.967 177.287C561.809 176.858 562.804 176.644 563.958 176.644C565.489 176.644 567.087 177.144 568.751 178.14L566.097 183.448C564.999 182.657 563.922 182.264 562.876 182.264C559.716 182.264 558.134 184.653 558.134 189.43V202.446H552.336V177.338Z" fill="black"/>
<path d="M571.947 189.703C571.947 186.079 573.243 182.996 575.836 180.449C578.429 177.907 581.589 176.636 585.32 176.636C589.066 176.636 592.241 177.918 594.854 180.475C597.432 183.032 598.718 186.176 598.718 189.907C598.718 193.669 597.422 196.824 594.829 199.365C592.216 201.892 589.015 203.153 585.218 203.153C581.456 203.153 578.302 201.866 575.76 199.289C573.218 196.747 571.947 193.552 571.947 189.703ZM577.873 189.81C577.873 192.317 578.541 194.302 579.884 195.762C581.257 197.242 583.069 197.977 585.32 197.977C587.586 197.977 589.403 197.247 590.756 195.787C592.114 194.328 592.792 192.378 592.792 189.938C592.792 187.498 592.114 185.548 590.756 184.089C589.383 182.608 587.571 181.873 585.32 181.873C583.105 181.873 581.308 182.613 579.935 184.089C578.562 185.564 577.873 187.473 577.873 189.81Z" fill="black"/>
<path d="M623.364 158.91H629.188V202.438H623.364V199.809C621.078 202.045 618.495 203.158 615.606 203.158C612.171 203.158 609.318 201.902 607.051 199.396C604.8 196.839 603.677 193.639 603.677 189.81C603.677 186.064 604.805 182.94 607.051 180.429C609.287 177.902 612.094 176.642 615.478 176.642C618.418 176.642 621.047 177.841 623.364 180.25V158.91ZM609.603 189.81C609.603 192.214 610.247 194.174 611.538 195.685C612.86 197.211 614.529 197.977 616.54 197.977C618.689 197.977 620.424 197.237 621.746 195.762C623.068 194.231 623.732 192.291 623.732 189.938C623.732 187.585 623.073 185.64 621.746 184.114C620.424 182.619 618.704 181.873 616.591 181.873C614.6 181.873 612.931 182.629 611.594 184.14C610.267 185.666 609.603 187.559 609.603 189.81Z" fill="black"/>
<path d="M642.312 177.338V191.742C642.312 195.902 643.95 197.979 647.232 197.979C650.514 197.979 652.153 195.902 652.153 191.742V177.338H657.951V191.87C657.951 193.881 657.701 195.616 657.206 197.076C656.726 198.383 655.894 199.557 654.705 200.608C652.745 202.308 650.254 203.16 647.232 203.16C644.226 203.16 641.745 202.308 639.785 200.608C638.581 199.562 637.728 198.383 637.233 197.076C636.754 195.907 636.509 194.172 636.509 191.87V177.338H642.312Z" fill="black"/>
<path d="M684.809 178.418V186.125C683.487 184.512 682.303 183.405 681.251 182.802C680.22 182.185 679.011 181.873 677.617 181.873C675.433 181.873 673.621 182.639 672.181 184.165C670.737 185.696 670.017 187.61 670.017 189.912C670.017 192.265 670.711 194.2 672.105 195.711C673.513 197.222 675.31 197.977 677.495 197.977C678.888 197.977 680.113 197.676 681.18 197.079C682.211 196.492 683.421 195.359 684.814 193.674V201.325C682.461 202.545 680.108 203.153 677.755 203.153C673.871 203.153 670.624 201.897 668.016 199.391C665.403 196.864 664.101 193.73 664.101 189.984C664.101 186.237 665.423 183.078 668.072 180.5C670.716 177.923 673.963 176.636 677.811 176.636C680.271 176.642 682.609 177.234 684.809 178.418Z" fill="black"/>
<path d="M700.613 182.747V202.434H694.815V182.747H692.339V177.336H694.815V168.134H700.613V177.336H705.125V182.747H700.613Z" fill="black"/>
<path d="M712.421 166.899C712.421 165.883 712.789 165.011 713.529 164.27C714.269 163.53 715.152 163.163 716.183 163.163C717.23 163.163 718.123 163.53 718.863 164.27C719.603 164.995 719.97 165.878 719.97 166.925C719.97 167.971 719.603 168.869 718.863 169.604C718.143 170.344 717.255 170.712 716.209 170.712C715.162 170.712 714.264 170.344 713.529 169.604C712.789 168.869 712.421 167.966 712.421 166.899ZM719.093 177.337V202.44H713.294V177.337H719.093Z" fill="black"/>
<path d="M726.309 189.703C726.309 186.079 727.606 182.996 730.199 180.449C732.792 177.907 735.956 176.636 739.682 176.636C743.429 176.636 746.604 177.917 749.217 180.474C751.795 183.032 753.086 186.176 753.086 189.907C753.086 193.669 751.789 196.823 749.197 199.365C746.583 201.892 743.383 203.152 739.585 203.152C735.824 203.152 732.669 201.866 730.127 199.289C727.58 196.747 726.309 193.551 726.309 189.703ZM732.235 189.81C732.235 192.316 732.904 194.302 734.246 195.762C735.619 197.242 737.431 197.977 739.682 197.977C741.949 197.977 743.761 197.247 745.118 195.787C746.476 194.327 747.155 192.377 747.155 189.938C747.155 187.498 746.476 185.548 745.118 184.088C743.745 182.608 741.933 181.873 739.682 181.873C737.467 181.873 735.67 182.613 734.297 184.088C732.924 185.563 732.235 187.472 732.235 189.81Z" fill="black"/>
<path d="M758.163 177.335H763.987V179.653C766.013 177.642 768.3 176.636 770.842 176.636C773.761 176.636 776.038 177.555 777.671 179.392C779.08 180.954 779.784 183.506 779.784 187.044V202.428H773.96V188.406C773.96 185.931 773.618 184.221 772.929 183.277C772.261 182.312 771.041 181.832 769.27 181.832C767.345 181.832 765.977 182.47 765.171 183.741C764.38 184.997 763.987 187.187 763.987 190.315V202.428H758.163V177.335Z" fill="black"/>
</svg>
